<?xml version="1.0" encoding="UTF-8"?>
<!-- Generated by Pixelmator Pro 3.6.13 -->
<svg width="1220" height="610" viewBox="0 0 1220 610" xmlns="http://www.w3.org/2000/svg">
    <g id="Group">
        <g id="g1">
            <path id="Path" fill="#0070c0" fill-rule="evenodd" stroke="#000000" stroke-width="5" stroke-linejoin="round" d="M 311.410034 79.27301 C 298.329956 79.27301 287.790039 83.119019 279.800049 90.812988 C 271.810059 98.505981 267.819946 108.664978 267.819946 121.289978 C 267.819946 133.849976 271.810059 143.992004 279.800049 151.718994 C 287.790039 159.445007 298.329956 163.307983 311.410034 163.307983 C 324.430054 163.307983 334.920044 159.445007 342.880005 151.718994 C 350.829956 143.992004 354.810059 133.849976 354.810059 121.289978 C 354.810059 108.664978 350.829956 98.505981 342.880005 90.812988 C 334.920044 83.119019 324.430054 79.27301 311.410034 79.27301 Z M 414.97998 52.346008 L 446.449951 52.346008 L 520.02002 136.578003 L 520.02002 52.346008 L 554.349976 52.346008 L 554.349976 190.135986 L 525.359985 190.135986 L 449.300049 101.859985 L 449.300049 190.135986 L 414.97998 190.135986 Z M 51.829956 52.346008 L 86.150024 52.346008 L 86.150024 177.411987 C 86.150024 212.723022 69.910034 230.377991 37.429993 230.377991 C 34.340027 230.377991 30.97998 230.213989 27.369995 229.88501 L 27.369995 202.859985 C 29.210022 203.187988 30.950012 203.353027 32.590027 203.353027 C 45.420044 203.353027 51.829956 194.903015 51.829956 178.004028 Z M 311.410034 50.570984 C 334.890015 50.570984 353.890015 57.656006 368.420044 71.825989 C 382.949951 85.995972 390.219971 102.484009 390.219971 121.289978 C 390.219971 140.359009 382.849976 156.896973 368.130005 170.903015 C 353.400024 184.908997 334.48999 191.911011 311.410034 191.911011 C 288.069946 191.911011 269.060059 184.940979 254.400024 171.000977 C 239.73999 157.060974 232.410034 140.491028 232.410034 121.289978 C 232.410034 102.419006 239.689941 85.914001 254.25 71.776978 C 268.819946 57.638977 287.869995 50.570984 311.410034 50.570984 Z M 163.140015 50.570984 C 177.869995 50.570984 193.420044 54.120972 209.800049 61.223022 L 209.800049 88.150024 C 191.52002 79.929993 176.949951 75.820984 166.099976 75.820984 C 159.920044 75.820984 155.01001 76.856018 151.359985 78.927979 C 147.709961 80.999023 145.880005 83.744019 145.880005 87.163025 C 145.880005 89.794006 147.199951 92.291992 149.829956 94.658997 C 152.459961 97.026978 158.869995 100.083984 169.060059 103.83197 C 179.25 107.580017 187.410034 111.065002 193.52002 114.286987 C 199.640015 117.508972 204.910034 122.046997 209.349976 127.898987 C 213.790039 133.750977 216.01001 141.14801 216.01001 150.091003 C 216.01001 162.848022 211.160034 173.007019 201.459961 180.56897 C 191.76001 188.130005 178.98999 191.911011 163.140015 191.911011 C 146.050049 191.911011 129.47998 187.473022 113.430054 178.596008 L 113.430054 148.90802 C 122.640015 155.088989 130.790039 159.593018 137.890015 162.419983 C 145 165.247986 152.52002 166.661011 160.47998 166.661011 C 173.959961 166.661011 180.699951 162.422974 180.699951 153.945007 C 180.699951 151.052979 179.349976 148.325989 176.650024 145.763 C 173.959961 143.200012 167.459961 140.078979 157.170044 136.398987 C 146.880005 132.718994 138.72998 129.301025 132.709961 126.143005 C 126.689941 122.986023 121.5 118.481018 117.130005 112.627014 C 112.76001 106.77301 110.569946 99.275024 110.569946 90.132996 C 110.569946 78.294006 115.339966 68.741028 124.869995 61.473022 C 134.410034 54.205017 147.170044 50.570984 163.140015 50.570984 Z"/>
            <text id="JSON-" xml:space="preserve" x="26" y="210" font-family="Arial" font-size="179.808" fill="#000000" fill-opacity="0">JSON</text>
            <path id="path1" fill="none" stroke="#ff0000" stroke-width="5" stroke-linejoin="round" d="M 1024.599976 112.512024 C 1012.569946 112.512024 1005.829956 119.284973 1004.380005 132.830017 L 1044.819946 132.830017 C 1043.23999 119.284973 1036.5 112.512024 1024.599976 112.512024 Z M 806.859985 97.026978 L 836.150024 97.026978 L 836.150024 190.135986 L 806.859985 190.135986 Z M 1123.219971 95.054016 C 1134.330078 95.054016 1144.360107 97.35498 1153.300049 101.958008 L 1153.300049 122.77002 C 1142.120117 115.93103 1131.77002 112.512024 1122.22998 112.512024 C 1115.199951 112.512024 1111.679932 114.911987 1111.679932 119.710999 C 1111.679932 120.960022 1112.419922 122.192993 1113.899902 123.408997 C 1115.389893 124.625977 1121.060059 127.197998 1130.919922 131.125 C 1140.780029 135.052002 1147.73999 139.583008 1151.820068 144.71698 C 1155.899902 149.851013 1157.939941 155.479004 1157.939941 161.599976 C 1157.939941 171.276978 1154.649902 178.747986 1148.070068 184.013 C 1141.5 189.278992 1132.129883 191.911011 1119.959961 191.911011 C 1107.469971 191.911011 1096.360107 189.643005 1086.620117 185.106018 L 1086.620117 164.492004 C 1098.590088 169.752014 1108.620117 172.382019 1116.709961 172.382019 C 1126.179932 172.382019 1130.909912 170.086975 1130.909912 165.495972 C 1130.909912 163.724976 1130.040039 162.052002 1128.280029 160.478027 C 1126.530029 158.903992 1120.659912 156.164001 1110.679932 152.255981 C 1100.689941 148.348999 1093.860107 144.059021 1090.179932 139.385986 C 1086.48999 134.711975 1084.649902 129.512024 1084.649902 123.784973 C 1084.649902 115.294983 1088.189941 108.383972 1095.26001 103.052002 C 1102.320068 97.719971 1111.649902 95.054016 1123.219971 95.054016 Z M 1022.530029 95.054016 C 1036.859985 95.054016 1048.619995 99.870972 1057.790039 109.504028 C 1066.959961 119.137024 1071.25 132.041016 1070.659912 148.21698 L 1003.790039 148.21698 C 1004.380005 156.666016 1007.369995 163.166992 1012.76001 167.721008 C 1018.150024 172.275024 1025.390015 174.552002 1034.459961 174.552002 C 1045.439941 174.552002 1056.949951 170.114014 1068.97998 161.237 L 1068.97998 179.68103 C 1057.800049 187.835022 1043.959961 191.911011 1027.459961 191.911011 C 1011.089966 191.911011 998 187.518005 988.199951 178.731018 C 978.410034 169.94397 973.51001 158.309998 973.51001 143.828003 C 973.51001 129.609985 978.109985 117.927002 987.319946 108.778015 C 996.52002 99.629028 1008.26001 95.054016 1022.530029 95.054016 Z M 920.27002 95.054016 C 929.930054 95.054016 938.01001 98.14801 944.47998 104.335022 C 950.959961 110.521973 954.199951 119.375 954.199951 130.89502 L 954.199951 190.135986 L 924.900024 190.135986 L 924.900024 133.348022 C 924.900024 120.903992 920.069946 114.682007 910.410034 114.682007 C 903.5 114.682007 896.699951 119.810974 889.98999 130.06897 L 889.98999 190.135986 L 860.689941 190.135986 L 860.689941 97.026978 L 889.98999 97.026978 L 889.98999 110.242981 C 898.599976 100.117004 908.699951 95.054016 920.27002 95.054016 Z M 821.359985 50.570984 C 825.829956 50.570984 829.640015 52.148987 832.800049 55.304993 C 835.959961 58.460999 837.530029 62.275024 837.530029 66.745972 C 837.530029 71.151978 835.959961 74.948975 832.800049 78.138 C 829.640015 81.328003 825.829956 82.921997 821.359985 82.921997 C 816.949951 82.921997 813.170044 81.328003 810.02002 78.138 C 806.859985 74.948975 805.280029 71.151978 805.280029 66.745972 C 805.280029 62.275024 806.859985 58.460999 810.02002 55.304993 C 813.170044 52.148987 816.949951 50.570984 821.359985 50.570984 Z"/>
            <text id="ines" xml:space="preserve" x="804" y="176" font-family="Arial" font-size="141.341" fill="#000000" fill-opacity="0">ines</text>
            <path id="path2" fill="none" stroke="#70ad47" stroke-width="5" stroke-linejoin="round" d="M 458.02002 274.189026 C 444.939941 274.189026 434.400024 278.085022 426.410034 285.877014 C 418.420044 293.669006 414.430054 303.909973 414.430054 316.601013 C 414.430054 329.226013 418.420044 339.41803 426.410034 347.177002 C 434.400024 354.935974 444.939941 358.815002 458.02002 358.815002 C 470.910034 358.815002 481.400024 354.984985 489.48999 347.325012 C 497.579956 339.664001 501.619995 329.422974 501.619995 316.601013 C 501.619995 303.646973 497.530029 293.340027 489.339966 285.679016 C 481.150024 278.018982 470.709961 274.189026 458.02002 274.189026 Z M 458.420044 245.486023 C 481.76001 245.486023 500.699951 252.617981 515.22998 266.882019 C 529.76001 281.145996 537.030029 297.447021 537.030029 315.786987 C 537.030029 330.640991 532.410034 344.281006 523.170044 356.703979 C 513.930054 369.127991 501.459961 377.804016 485.73999 382.734009 C 497.709961 389.60498 510.199951 393.041016 523.219971 393.041016 C 528.280029 393.041016 532.75 392.383972 536.630005 391.067993 L 538.800049 393.929016 L 511.97998 416.812012 C 504.609985 416.286011 496.97998 414.872009 489.089966 412.570007 C 481.660034 410.400024 474.130005 407.507019 466.51001 403.890991 C 459.27002 400.406006 452.109985 396.328979 445 391.659973 C 439.73999 388.174988 433.5 385.117981 426.26001 382.487 C 420.280029 380.317017 414.530029 377.26001 409 373.315002 C 403.280029 369.237976 398.25 364.437988 393.910034 358.914001 C 389.23999 353.062012 385.660034 346.749023 383.160034 339.97699 C 380.400024 332.546021 379.02002 324.885986 379.02002 316.994995 C 379.02002 297.926025 386.5 281.241028 401.459961 266.939026 C 416.420044 252.637024 435.400024 245.486023 458.420044 245.486023 Z M 309.76001 245.486023 C 324.48999 245.486023 340.040039 249.036987 356.410034 256.138977 L 356.410034 283.065002 C 338.130005 274.846008 323.560059 270.736023 312.719971 270.736023 C 306.530029 270.736023 301.619995 271.771973 297.969971 273.843018 C 294.319946 275.914978 292.5 278.659973 292.5 282.078979 C 292.5 284.708984 293.810059 287.208008 296.439941 289.575012 C 299.069946 291.942017 305.47998 295 315.670044 298.747986 C 325.869995 302.495972 334.02002 305.981018 340.140015 309.203003 C 346.25 312.424988 351.530029 316.961975 355.969971 322.815002 C 360.400024 328.666992 362.619995 336.064026 362.619995 345.007019 C 362.619995 357.763 357.77002 367.922974 348.079956 375.484009 C 338.380005 383.046021 325.599976 386.827026 309.76001 386.827026 C 292.660034 386.827026 276.089966 382.388977 260.050049 373.512024 L 260.050049 343.822998 C 269.25 350.004028 277.400024 354.508972 284.51001 357.335999 C 291.609985 360.163025 299.140015 361.577026 307.089966 361.577026 C 320.569946 361.577026 327.310059 357.338989 327.310059 348.861023 C 327.310059 345.968994 325.959961 343.242004 323.27002 340.679016 C 320.569946 338.116028 314.069946 334.994019 303.780029 331.315002 C 293.48999 327.63501 285.339966 324.216003 279.319946 321.059021 C 273.310059 317.901978 268.109985 313.395996 263.73999 307.54303 C 259.369995 301.689026 257.189941 294.190979 257.189941 285.049011 C 257.189941 273.210022 261.949951 263.656006 271.48999 256.388 C 281.02002 249.119995 293.780029 245.486023 309.76001 245.486023 Z"/>
            <text id="SQ" xml:space="preserve" x="256" y="397" font-family="Arial" font-size="171.325" fill="#000000" fill-opacity="0">SQ</text>
            <path id="path3" fill="#70ad47" fill-rule="evenodd" stroke="#70ad47" stroke-width="5" stroke-linejoin="round" d="M 1133.969971 307.427979 C 1121.939941 307.427979 1115.199951 314.200989 1113.75 327.745972 L 1154.189941 327.745972 C 1152.610107 314.200989 1145.870117 307.427979 1133.969971 307.427979 Z M 951.75 291.942017 L 981.050049 291.942017 L 981.050049 385.052002 L 951.75 385.052002 Z M 1131.899902 289.969971 C 1146.22998 289.969971 1157.98999 294.786011 1167.159912 304.419006 C 1176.330078 314.052979 1180.620117 326.95697 1180.030029 343.132996 L 1113.159912 343.132996 C 1113.75 351.580994 1116.73999 358.083008 1122.139893 362.637024 C 1127.530029 367.190979 1134.76001 369.468018 1143.830078 369.468018 C 1154.820068 369.468018 1166.320068 365.028992 1178.360107 356.151978 L 1178.360107 374.596985 C 1167.179932 382.75 1153.340088 386.827026 1136.830078 386.827026 C 1120.459961 386.827026 1107.370117 382.434021 1097.580078 373.646973 C 1087.780029 364.859985 1082.879883 353.224976 1082.879883 338.744019 C 1082.879883 324.526001 1087.47998 312.843018 1096.689941 303.69397 C 1105.889893 294.544006 1117.629883 289.969971 1131.899902 289.969971 Z M 1034.880005 262.64801 L 1038.530029 262.64801 L 1038.530029 291.942017 L 1072.459961 291.942017 L 1072.459961 311.965027 L 1038.530029 311.965027 L 1038.530029 350.333008 C 1038.530029 354.935974 1039.800049 358.56897 1042.329956 361.231995 C 1044.859985 363.89502 1048.359985 365.22699 1052.829956 365.22699 C 1058.880005 365.22699 1065.430054 363.41803 1072.459961 359.802002 L 1072.459961 381.007996 C 1063.119995 384.887024 1054.079956 386.827026 1045.339966 386.827026 C 1033.900024 386.827026 1025.02002 383.867981 1018.709961 377.950012 C 1012.390015 372.031982 1009.23999 363.353027 1009.23999 351.911011 L 1009.23999 311.965027 L 995.920044 311.965027 L 995.920044 306.244019 Z M 966.25 245.486023 C 970.719971 245.486023 974.540039 247.065002 977.689941 250.221008 C 980.849976 253.377014 982.430054 257.190979 982.430054 261.661987 C 982.430054 266.067993 980.849976 269.86499 977.689941 273.054016 C 974.540039 276.242981 970.719971 277.838013 966.25 277.838013 C 961.849976 277.838013 958.069946 276.242981 954.910034 273.054016 C 951.75 269.86499 950.180054 266.067993 950.180054 261.661987 C 950.180054 257.190979 951.75 253.377014 954.910034 250.221008 C 958.069946 247.065002 961.849976 245.486023 966.25 245.486023 Z"/>
            <text id="ite" xml:space="preserve" x="949" y="371" font-family="Arial" font-size="141.341" fill="#000000" fill-opacity="0">ite</text>
            <text id="L" xml:space="preserve" x="585" y="399" font-family="Helvetica" font-size="527" fill="#7030a0">L</text>
            <path id="path4" fill="#ed7d31" fill-rule="evenodd" stroke="#ed7d31" stroke-width="5" stroke-linejoin="round" d="M 119.060059 467.427979 L 119.060059 554.719971 L 141.449951 554.719971 C 155.98999 554.719971 167.099976 550.719971 174.790039 542.72998 C 182.47998 534.73999 186.329956 524.209961 186.329956 511.119995 C 186.329956 497.579956 182.439941 486.909973 174.640015 479.119995 C 166.849976 471.320007 155.660034 467.427979 141.060059 467.427979 Z M 84.73999 442.177979 L 145.5 442.177979 C 168.969971 442.177979 187.530029 448.60498 201.180054 461.460022 C 214.819946 474.320007 221.640015 490.940002 221.640015 511.319946 C 221.640015 532.689941 214.719971 549.469971 200.880005 561.670044 C 187.040039 573.869995 167.300049 579.969971 141.650024 579.969971 L 84.73999 579.969971 Z"/>
            <text id="D" xml:space="preserve" x="84" y="565" font-family="Arial" font-size="137.79" fill="#000000" fill-opacity="0">D</text>
            <path id="path5" fill="none" stroke="#ed7d31" stroke-width="5" stroke-linejoin="round" d="M 550.619995 475.119995 L 530.380005 528.680054 L 572.949951 528.680054 Z M 296.560059 475.119995 L 276.319946 528.680054 L 318.900024 528.680054 Z M 530.280029 442.177979 L 570.050049 442.177979 L 631.25 579.969971 L 594.339966 579.969971 L 582.98999 552.73999 L 521.280029 552.73999 L 510.98999 579.969971 L 474.619995 579.969971 Z M 358.930054 442.177979 L 493.069946 442.177979 L 493.069946 467.427979 L 443.160034 467.427979 L 443.160034 579.969971 L 408.829956 579.969971 L 408.829956 467.427979 L 358.930054 467.427979 Z M 276.22998 442.177979 L 316 442.177979 L 377.199951 579.969971 L 340.290039 579.969971 L 328.930054 552.73999 L 267.22998 552.73999 L 256.939941 579.969971 L 220.569946 579.969971 Z"/>
            <text id="ATA" xml:space="preserve" x="220" y="565" font-family="Arial" font-size="137.79" fill="#000000" fill-opacity="0">ATA</text>
            <path id="path6" fill="#ed7d31" fill-rule="evenodd" stroke="#ed7d31" stroke-width="5" stroke-linejoin="round" d="M 681.290039 522.170044 L 681.290039 554.719971 L 700.619995 554.719971 C 709.76001 554.719971 716.339966 553.449951 720.349976 550.920044 C 724.359985 548.390015 726.369995 544 726.369995 537.75 C 726.369995 532.949951 724.459961 529.160034 720.650024 526.359985 C 716.829956 523.569946 711.73999 522.170044 705.359985 522.170044 Z M 681.290039 467.427979 L 681.290039 496.920044 L 699.23999 496.920044 C 704.77002 496.920044 709.069946 495.51001 712.160034 492.679993 C 715.26001 489.849976 716.800049 486.299988 716.800049 482.030029 C 716.800049 477.820007 715.26001 474.330017 712.160034 471.570007 C 709.069946 468.807983 704.77002 467.427979 699.23999 467.427979 Z M 646.969971 442.177979 L 706.540039 442.177979 C 720.75 442.177979 731.910034 445.593994 740.030029 452.427002 C 748.150024 459.26001 752.209961 467.341003 752.209961 476.669983 C 752.209961 488.630005 745.930054 497.800049 733.369995 504.170044 C 742.839966 506.670044 750.089966 511.079956 755.119995 517.390015 C 760.150024 523.709961 762.660034 531.079956 762.660034 539.5 C 762.660034 551.47998 758.550049 561.209961 750.339966 568.719971 C 742.119995 576.219971 730.02002 579.969971 714.040039 579.969971 L 646.969971 579.969971 Z"/>
            <text id="B" xml:space="preserve" x="646" y="565" font-family="Arial" font-size="137.79" fill="#000000" fill-opacity="0">B</text>
            <path id="path7" fill="none" stroke="#ed7d31" stroke-width="5" stroke-linejoin="round" d="M 849.109985 475.119995 L 828.869995 528.680054 L 871.439941 528.680054 Z M 1067.880005 442.177979 L 1168.090088 442.177979 L 1168.090088 467.427979 L 1102.209961 467.427979 L 1102.209961 496.329956 L 1165.040039 496.329956 L 1165.040039 521.579956 L 1102.209961 521.579956 L 1102.209961 554.719971 L 1169.47998 554.719971 L 1169.47998 579.969971 L 1067.880005 579.969971 Z M 828.77002 442.177979 L 868.540039 442.177979 L 929.73999 579.969971 L 892.829956 579.969971 L 881.47998 552.73999 L 819.77002 552.73999 L 809.47998 579.969971 L 773.109985 579.969971 Z M 992.310059 440.401978 C 1007.040039 440.401978 1022.589966 443.953003 1038.959961 451.054993 L 1038.959961 477.97998 C 1020.680054 469.76001 1006.119995 465.651978 995.27002 465.651978 C 989.089966 465.651978 984.170044 466.687988 980.52002 468.758972 C 976.869995 470.830017 975.050049 473.580017 975.050049 476.98999 C 975.050049 479.630005 976.359985 482.119995 978.98999 484.48999 C 981.619995 486.859985 988.030029 489.919983 998.22998 493.660034 C 1008.420044 497.410034 1016.569946 500.900024 1022.689941 504.119995 C 1028.800049 507.339966 1034.079956 511.880005 1038.52002 517.72998 C 1042.959961 523.579956 1045.180054 530.97998 1045.180054 539.920044 C 1045.180054 552.680054 1040.329956 562.839966 1030.630005 570.400024 C 1020.930054 577.959961 1008.160034 581.73999 992.310059 581.73999 C 975.209961 581.73999 958.640015 577.300049 942.599976 568.430054 L 942.599976 538.73999 C 951.800049 544.920044 959.959961 549.420044 967.060059 552.25 C 974.160034 555.079956 981.689941 556.48999 989.650024 556.48999 C 1003.130005 556.48999 1009.869995 552.25 1009.869995 543.780029 C 1009.869995 540.880005 1008.52002 538.160034 1005.819946 535.589966 C 1003.119995 533.030029 996.630005 529.910034 986.339966 526.22998 C 976.040039 522.550049 967.890015 519.130005 961.880005 515.969971 C 955.859985 512.819946 950.670044 508.310059 946.290039 502.459961 C 941.920044 496.599976 939.73999 489.109985 939.73999 479.960022 C 939.73999 468.125977 944.5 458.572021 954.040039 451.304016 C 963.569946 444.036011 976.329956 440.401978 992.310059 440.401978 Z"/>
            <text id="ASE" xml:space="preserve" x="772" y="566" font-family="Arial" font-size="141.341" fill="#000000" fill-opacity="0">ASE</text>
        </g>
    </g>
</svg>
